<svg xmlns="http://www.w3.org/2000/svg" width="310" height="50" viewBox="0 0 310 50">
  <g id="Group_6204" data-name="Group 6204" transform="translate(2428 19764)">
    <g id="MIndstorm_logo" transform="translate(-3517 1906)">
      <rect id="Rectangle_1818" data-name="Rectangle 1818" width="310" height="50" transform="translate(1089 -21670)" fill="none"/>
    </g>
    <g id="Y4qFve.tif" transform="translate(-1602.132 -19661.428)">
      <g id="Group_6202" data-name="Group 6202" transform="translate(-732.952 -97.572)">
        <path id="Path_211" data-name="Path 211" d="M-732.952,222.755l1.015-.2.043.853h4.32v-1.611h-.4c-1.154,0-2.308,0-3.462,0-.952,0-1.245-.279-1.288-1.238a7.625,7.625,0,0,1,.014-1.1.94.94,0,0,1,1.046-.969q1.978-.023,3.957,0a1.031,1.031,0,0,1,1.116,1.224.314.314,0,0,1-.186.221c-.251.077-.514.119-.76.172-.034-.036-.063-.052-.065-.071-.07-.679-.069-.679-.778-.679h-3.3v1.5h3.788c1.02,0,1.31.263,1.369,1.286a9.426,9.426,0,0,1-.023,1.215.889.889,0,0,1-.866.932,3.254,3.254,0,0,1-.528.055q-1.807.007-3.614,0c-.592,0-1.14-.1-1.4-.745Z" transform="translate(732.952 -184.789)"/>
        <path id="Path_213" data-name="Path 213" d="M-527.47,124.3V112.355h1.951v27.957h-1.932v-3.306l-.072-.063a9.973,9.973,0,0,1-9.5,3.606,9.636,9.636,0,0,1-6.26-3.552,10.372,10.372,0,0,1,.687-13.572A10.394,10.394,0,0,1-527.47,124.3Zm-7.938,14.444a8.191,8.191,0,0,0,8.193-7.822,8.353,8.353,0,0,0-7.985-8.463,8.256,8.256,0,0,0-8.39,8.267A8.256,8.256,0,0,0-535.408,138.74Z" transform="translate(604.984 -112.35)"/>
        <path id="Path_214" data-name="Path 214" d="M-732.538,138.482h1.927v1.742c1.385-1.781,3.257-2.151,5.305-2a5.839,5.839,0,0,1,4.823,2.959c.306-.394.563-.77.864-1.107a5.468,5.468,0,0,1,3.434-1.785,7.913,7.913,0,0,1,4.364.488,5.569,5.569,0,0,1,3.425,5.067c.024.3.03.608.03.911q0,6.356,0,12.713v.481h-1.965V157.5q0-6.47,0-12.941a4.251,4.251,0,0,0-4.461-4.443,8.3,8.3,0,0,0-2.026.251,3.415,3.415,0,0,0-2.59,3.087,10.588,10.588,0,0,0-.092,1.515q-.01,6.261,0,12.522v.464h-1.969v-.439c0-4.326-.042-8.653.015-12.979a4.442,4.442,0,0,0-4.3-4.431,4.524,4.524,0,0,0-4.312,2.191,3.8,3.8,0,0,0-.533,2.036q0,6.565,0,13.131v.482h-1.937Z" transform="translate(732.669 -129.983)"/>
        <path id="Path_215" data-name="Path 215" d="M-233.084,157.954h-1.972v-.463c0-4.339-.014-8.678.007-13.016a4.277,4.277,0,0,0-3.4-4.267,6.034,6.034,0,0,0-3.686.378,3.571,3.571,0,0,0-2.034,3.477c-.042,4.465-.024,8.931-.03,13.4,0,.15,0,.3,0,.483h-1.969v-.435c0-4.326-.029-8.652.011-12.978a4.446,4.446,0,0,0-4.347-4.427,4.6,4.6,0,0,0-4.072,1.874,3.891,3.891,0,0,0-.732,2.394q0,6.565.008,13.13c0,.385-.088.518-.482.482a11.189,11.189,0,0,0-1.255-.005c-.2,0-.287-.063-.268-.262.006-.063,0-.127,0-.19q0-9.306-.008-18.611c0-.362.09-.494.461-.464a10.184,10.184,0,0,0,1.217,0c.248-.01.338.074.329.326-.016.465,0,.93,0,1.533,1.386-1.869,3.251-2.248,5.3-2.093a5.833,5.833,0,0,1,4.826,2.969c.291-.384.54-.761.837-1.1a5.522,5.522,0,0,1,3.463-1.807,7.972,7.972,0,0,1,4.048.364,5.552,5.552,0,0,1,3.728,5.205c.068.985.03,1.978.031,2.967q0,5.328,0,10.656Z" transform="translate(408.271 -129.978)"/>
        <path id="Path_216" data-name="Path 216" d="M-382.5,148.014a10.117,10.117,0,0,1,10.19-10.115,10.136,10.136,0,0,1,10.144,10.13,10.125,10.125,0,0,1-10.187,10.124A10.057,10.057,0,0,1-382.5,148.014Zm18.3.034a8.155,8.155,0,0,0-8.1-8.192,8.4,8.4,0,0,0-8.23,8.18,8.17,8.17,0,0,0,8.218,8.134A8.057,8.057,0,0,0-364.2,148.048Z" transform="translate(493.722 -129.787)" fill="#ef9322"/>
        <path id="Path_217" data-name="Path 217" d="M-607.311,158.029h-1.943V138.556h1.933v2.217c.253-.325.427-.585.636-.811a4.906,4.906,0,0,1,2.712-1.431,9.973,9.973,0,0,1,5.473.282,6.126,6.126,0,0,1,4.008,4.619,12.453,12.453,0,0,1,.318,2.746c.034,3.793.014,7.586.014,11.379v.466h-1.969v-.461q0-5.785,0-11.57a7.707,7.707,0,0,0-.48-2.72,4.337,4.337,0,0,0-3.074-2.806,7.3,7.3,0,0,0-3.984.01,4.768,4.768,0,0,0-3.417,3.774,9.092,9.092,0,0,0-.215,2.034c-.02,3.768-.01,7.535-.01,11.3Z" transform="translate(648.512 -130.047)"/>
        <path id="Path_218" data-name="Path 218" d="M-469.872,154.23l1.639-.991c.245.358.462.7.7,1.023a5.348,5.348,0,0,0,5.051,2.115,5.06,5.06,0,0,0,2.615-.811,3.7,3.7,0,0,0,.235-5.32,5.4,5.4,0,0,0-1.851-1.09c-1.3-.521-2.622-1.01-3.917-1.552a5.558,5.558,0,0,1-2.188-1.475,4.8,4.8,0,0,1,.5-6.477,5.6,5.6,0,0,1,4.151-1.45,7.616,7.616,0,0,1,5.248,2.284l-1.36,1.181a13.5,13.5,0,0,0-1.651-1.024,5.622,5.622,0,0,0-4.469-.168,2.147,2.147,0,0,0-1.248,1.309,2.891,2.891,0,0,0,1.514,3.861c.988.478,2.043.813,3.057,1.24.828.348,1.661.694,2.452,1.117a4.934,4.934,0,0,1,2.734,4.916,5.389,5.389,0,0,1-4.211,5.113A7.459,7.459,0,0,1-469.872,154.23Z" transform="translate(553.366 -129.992)"/>
        <path id="Path_219" data-name="Path 219" d="M-415.531,120.807h4.54v2.006h-4.521V140.3h-1.957V122.827h-2.607v-2h2.572v-8.492h1.972Z" transform="translate(519.374 -112.338)"/>
        <path id="Path_220" data-name="Path 220" d="M-303.348,158.061V138.545c.593,0,1.161-.012,1.728.014.075,0,.2.2.2.3.019.621.008,1.243.009,1.864,0,.081.013.162.023.283.326-.414.608-.8.917-1.159a3.894,3.894,0,0,1,3.415-1.534,7.138,7.138,0,0,1,3.964,1.53l-.992,1.531c-.736-.332-1.413-.706-2.135-.95a3.169,3.169,0,0,0-3.665,1.025,5.935,5.935,0,0,0-1.53,3.988c.012,4.046,0,8.092,0,12.137,0,.483,0,.483-.5.483Z" transform="translate(439.693 -130.064)"/>
        <path id="Path_221" data-name="Path 221" d="M-635.661,139.119h1.917v19.47h-1.917Z" transform="translate(666.538 -130.619)"/>
        <path id="Path_222" data-name="Path 222" d="M-290.658,218.491c.774,0,1.548,0,2.322,0,.866,0,1.222.359,1.228,1.234.007,1.091,0,2.182,0,3.273,0,.986-.352,1.342-1.365,1.35q-2,.014-4,0a7.386,7.386,0,0,1-.982-.078.773.773,0,0,1-.708-.688,3.9,3.9,0,0,1-.065-.6q-.01-1.58,0-3.159c0-1,.335-1.328,1.322-1.329Zm-2.4.893v4.023h4.814v-4.023Z" transform="translate(433.468 -184.8)"/>
        <path id="Path_223" data-name="Path 223" d="M-195.828,223.406c0-.483,0-.936,0-1.389,0-.265-.186-.222-.346-.222-1.154,0-2.308,0-3.462,0a3.553,3.553,0,0,1-.493-.026.838.838,0,0,1-.832-.832,9.679,9.679,0,0,1-.014-1.517.886.886,0,0,1,.956-.925c1.382-.024,2.765-.029,4.146,0a1.036,1.036,0,0,1,1,1.255.3.3,0,0,1-.19.181c-.254.073-.515.119-.764.173-.029-.038-.055-.057-.057-.077-.054-.675-.053-.675-.738-.675h-3.355v1.5h.414c1.167,0,2.334,0,3.5,0,.867,0,1.177.267,1.242,1.129a9.8,9.8,0,0,1-.017,1.438.844.844,0,0,1-.773.852,3.531,3.531,0,0,1-.679.068c-1.154.007-2.308,0-3.462,0a3.138,3.138,0,0,1-.53-.039,1.073,1.073,0,0,1-.949-1.371.345.345,0,0,1,.21-.213c.241-.07.493-.1.792-.16.013.291.025.559.037.849Z" transform="translate(370.008 -184.79)"/>
        <path id="Path_224" data-name="Path 224" d="M-462.06,218.364c1.584.043,3.146.02,4.694.148a2.507,2.507,0,0,1,2.284,2.412,2.689,2.689,0,0,1-1.219,2.828,4.345,4.345,0,0,1-2.125.506c-1.154.03-2.309.008-3.464.006a1.256,1.256,0,0,1-.169-.027Zm1.112,5.043c1.133-.058,2.208-.07,3.273-.182a1.541,1.541,0,0,0,1.436-1.357,3.752,3.752,0,0,0,.027-.87,1.483,1.483,0,0,0-1.33-1.561c-1.063-.131-2.143-.116-3.217-.149-.061,0-.181.137-.182.212C-460.951,220.767-460.948,222.033-460.948,223.407Z" transform="translate(548.034 -184.714)"/>
        <path id="Path_225" data-name="Path 225" d="M-555.653,218.542h1.111v4.91h4.253v-4.9h1.14v.368q0,2.055,0,4.111c0,.985-.33,1.339-1.317,1.352q-1.941.025-3.882,0c-.969-.011-1.314-.361-1.32-1.314-.008-1.434,0-2.867,0-4.3C-555.669,218.706-555.661,218.645-555.653,218.542Z" transform="translate(611.936 -184.836)"/>
        <path id="Path_226" data-name="Path 226" d="M-644.968,218.561h6.605c.025.031.038.04.04.05.091.8.091.8-.695.8-.571,0-1.142.013-1.712-.005-.272-.009-.346.086-.344.349.011,1.408,0,2.815.013,4.223,0,.325-.068.443-.417.43-.728-.027-.729-.006-.729-.719,0-1.306-.008-2.612.006-3.918,0-.286-.083-.374-.368-.366-.659.019-1.319-.012-1.978.013-.328.012-.477-.07-.424-.417A3.173,3.173,0,0,0-644.968,218.561Z" transform="translate(672.901 -184.849)"/>
        <path id="Path_227" data-name="Path 227" d="M-635.892,121.463a1.569,1.569,0,0,1-1.638-1.58,1.584,1.584,0,0,1,1.685-1.533,1.673,1.673,0,0,1,1.467,1.66A1.343,1.343,0,0,1-635.892,121.463Z" transform="translate(667.815 -116.442)"/>
        <path id="Path_228" data-name="Path 228" d="M-367.616,224.409h-1.055V218.6h1.055Z" transform="translate(484.284 -184.876)"/>
      </g>
    </g>
    <g id="Group_6203" data-name="Group 6203" transform="translate(-73 -51.617)">
      <path id="Path_230" data-name="Path 230" d="M-566.022-146.539l.533-3.867-.03-.019c-.047.061-.094.12-.14.182A28.5,28.5,0,0,1-570.8-144.8a22.875,22.875,0,0,1-10.112,4.617,20.2,20.2,0,0,1-5.019.439,29.132,29.132,0,0,1-3.129-.374,23.291,23.291,0,0,1-6.983-2.335,22.707,22.707,0,0,1-6.548-5.175c-.766-.871-1.457-1.808-2.181-2.715a.3.3,0,0,0-.15-.115l.533,3.911a1.383,1.383,0,0,1-.278-.166,19.2,19.2,0,0,1-3.937-5.676,28.686,28.686,0,0,1-2-6.946,31.973,31.973,0,0,1-.348-6.721,19.43,19.43,0,0,1,.564-4.18,3.618,3.618,0,0,1,.246-.653.644.644,0,0,1,.883-.383,7.718,7.718,0,0,1,.736.317c.136.059.275.114.418.173.221-.582.423-1.142.645-1.7a25.779,25.779,0,0,1,4.99-8.069,22.548,22.548,0,0,1,9.816-6.137,27.359,27.359,0,0,1,6.164-1.261,17.7,17.7,0,0,1,3.787.1,24.848,24.848,0,0,1,6.881,1.843,23.623,23.623,0,0,1,13.377,14.9c.091.282.117.3.4.2.122-.043.239-.1.358-.158s.259-.128.394-.178c.547-.207.891-.087,1.083.462a8.109,8.109,0,0,1,.371,1.515c.159,1.108.336,2.219.388,3.335a35.878,35.878,0,0,1-.041,3.73,29.788,29.788,0,0,1-.806,5.311,22.366,22.366,0,0,1-3.047,7.232,16.11,16.11,0,0,1-2.5,2.949C-565.891-146.648-565.943-146.606-566.022-146.539Zm-19.543-36.6a40.6,40.6,0,0,0-4.638.369,23.737,23.737,0,0,0-6.168,1.653,16.273,16.273,0,0,0-8.05,7.115,19.606,19.606,0,0,0-2.446,9.455,24.7,24.7,0,0,0,.566,5.505,21.978,21.978,0,0,0,3.271,7.862,24.236,24.236,0,0,0,8.664,7.776,18.5,18.5,0,0,0,11.056,2.233,19.437,19.437,0,0,0,6.686-1.89,23.112,23.112,0,0,0,11.419-12.3,20.635,20.635,0,0,0,1.606-7.616c.01-1.064-.044-2.131-.121-3.192a20.858,20.858,0,0,0-.947-4.883,15.481,15.481,0,0,0-5.236-7.634,19.142,19.142,0,0,0-5.905-3.086A29.474,29.474,0,0,0-585.565-183.139Z" transform="translate(-1715.374 -19523.385)" fill="#ef9322"/>
      <path id="Path_231" data-name="Path 231" d="M-556.113-84.687c.03-.023.047-.029.051-.04a9.022,9.022,0,0,1,2.642-3.557,74.369,74.369,0,0,1,7.729-5.838c2.206-1.465,4.512-2.76,6.831-4.032a5.324,5.324,0,0,1,1.047-.421.572.572,0,0,1,.825.418,9.945,9.945,0,0,1,.363,1.517,24.53,24.53,0,0,1,.3,5.056,21.084,21.084,0,0,1-2.723,9.85,11.885,11.885,0,0,1-2.347,2.91c-.03.027-.063.052-.144.119.044-.335.079-.62.12-.9a37.889,37.889,0,0,0,.508-5.083,10.39,10.39,0,0,0-.319-2.839c-.011-.039-.025-.077-.046-.139-.274.066-.545.128-.815.2a29.513,29.513,0,0,0-4.838,1.616,11.344,11.344,0,0,0-6.356,6.976c-.577,1.686-.981,3.415-1.405,5.142-.4,1.633-.843,3.255-1.268,4.882-.016.063-.043.124-.086.247-.109-.333-.215-.606-.287-.888-.459-1.81-.919-3.619-1.363-5.432a30.274,30.274,0,0,0-1.464-4.757,11.807,11.807,0,0,0-5.761-6.021,24.236,24.236,0,0,0-5.542-1.888c-.107-.025-.215-.047-.367-.08-.079.353-.176.7-.235,1.056a14.04,14.04,0,0,0-.018,3.947c.153,1.3.35,2.587.528,3.88,0,.026,0,.053.011.155a2.615,2.615,0,0,1-.368-.264,15.67,15.67,0,0,1-2.883-4.145,20.518,20.518,0,0,1-1.693-5.833,30.048,30.048,0,0,1-.192-6.317,9.151,9.151,0,0,1,.6-2.975c.152-.362.175-.409.563-.347a3.912,3.912,0,0,1,1.158.334c1.008.516,2,1.065,2.981,1.632a76.889,76.889,0,0,1,11.714,8.326,9.983,9.983,0,0,1,1.8,1.95A5.587,5.587,0,0,1-556.113-84.687Z" transform="translate(-1744.542 -19597.488)" fill="#ef9322"/>
    </g>
  </g>
</svg>
