<?xml version="1.0" encoding="UTF-8"?> <svg xmlns="http://www.w3.org/2000/svg" id="Layer_1" data-name="Layer 1" viewBox="0 0 1920 293"><g><path d="M229.88,289.41h-47.87L34.71,56.3h-1.56c.39,7.01.84,14.69,1.36,23.06.52,8.37.94,17.12,1.27,26.27.32,9.15.55,18.39.68,27.73v156.06H-.12V4.93h47.48l146.72,231.95h1.36c-.26-5.71-.58-12.78-.97-21.21-.39-8.43-.75-17.35-1.07-26.76-.33-9.4-.49-18.32-.49-26.75V4.93h36.97v284.48Z" style="fill: #009cde; stroke-width: 0px;"></path><path d="M577.87,289.41l-31.52-84.64h-111.5l-31.13,84.64h-41.45L470.85,3.76h40.86l107.99,285.65h-41.84ZM535.26,170.13l-29.97-83.87c-.91-2.85-2.31-7.13-4.18-12.84-1.88-5.71-3.76-11.61-5.64-17.71-1.88-6.1-3.41-11.16-4.57-15.18-1.3,5.32-2.79,10.93-4.48,16.83-1.69,5.91-3.34,11.42-4.96,16.54-1.62,5.13-2.95,9.24-3.99,12.36l-30.36,83.87h88.15Z" style="fill: #009cde; stroke-width: 0px;"></path><path d="M963.81,289.41h-46.51l-95.54-133.68-29.19,24.91v108.77h-39.89V4.93h39.89v138.93c6.61-7.78,13.33-15.5,20.14-23.16,6.81-7.65,13.59-15.37,20.34-23.16L914.58,4.93h45.73l-109.75,123.95,113.25,160.53Z" style="fill: #009cde; stroke-width: 0px;"></path><path d="M1096.39,289.41V4.93h39.89v284.48h-39.89Z" style="fill: #009cde; stroke-width: 0px;"></path><path d="M1469.88,212.94c0,16.87-4.18,31.3-12.55,43.29-8.37,12-20.14,21.18-35.32,27.53-15.18,6.35-33.21,9.53-54.1,9.53-10.51,0-20.53-.55-30.06-1.65-9.54-1.1-18.39-2.69-26.56-4.77-8.17-2.07-15.57-4.67-22.18-7.78v-37.75c10.77,4.41,23.22,8.53,37.36,12.36,14.14,3.83,28.73,5.74,43.78,5.74,13.1,0,24.1-1.78,32.98-5.35,8.88-3.57,15.6-8.59,20.14-15.08,4.54-6.49,6.81-14.27,6.81-23.35s-2.21-16.7-6.61-22.86c-4.41-6.16-11.38-11.84-20.92-17.03-9.53-5.19-22.02-10.7-37.46-16.54-10.77-3.89-20.56-8.33-29.38-13.33-8.82-4.99-16.44-10.73-22.86-17.22-6.42-6.49-11.38-14.11-14.89-22.86-3.5-8.76-5.25-18.84-5.25-30.26,0-15.69,3.86-29.12,11.58-40.28,7.72-11.16,18.51-19.68,32.4-25.59,13.88-5.9,29.97-8.85,48.26-8.85,15.05,0,29.09,1.49,42.13,4.48,13.04,2.99,25.46,7.07,37.26,12.26l-12.65,33.08c-11.03-4.54-22.12-8.24-33.28-11.09-11.16-2.85-22.7-4.28-34.63-4.28-11.03,0-20.33,1.62-27.92,4.86-7.59,3.24-13.36,7.85-17.32,13.82-3.96,5.97-5.94,13.04-5.94,21.21,0,9.21,2.07,16.87,6.23,22.96,4.15,6.1,10.7,11.61,19.65,16.54,8.95,4.93,20.63,10.19,35.03,15.76,16.22,6.23,30,12.84,41.35,19.85,11.35,7.01,20.01,15.44,25.98,25.3,5.96,9.86,8.95,22.31,8.95,37.36Z" style="fill: #009cde; stroke-width: 0px;"></path><path d="M1798.02,289.41l-31.52-84.64h-111.5l-31.13,84.64h-41.45L1691,3.76h40.86l107.99,285.65h-41.83ZM1755.41,170.13l-29.97-83.87c-.91-2.85-2.3-7.13-4.18-12.84-1.88-5.71-3.76-11.61-5.64-17.71-1.88-6.1-3.41-11.16-4.57-15.18-1.3,5.32-2.79,10.93-4.48,16.83-1.69,5.91-3.34,11.42-4.96,16.54-1.62,5.13-2.95,9.24-3.99,12.36l-30.36,83.87h88.15Z" style="fill: #009cde; stroke-width: 0px;"></path></g><g id="_" data-name="®"><path d="M1880.41,0c6.81,0,13.34,1.71,19.58,5.11,6.27,3.42,11.19,8.3,14.78,14.66,3.58,6.37,5.35,13.02,5.35,19.98s-1.74,13.5-5.26,19.78c-3.51,6.28-8.39,11.17-14.68,14.68-6.27,3.51-12.87,5.27-19.77,5.27s-13.53-1.76-19.82-5.27c-6.27-3.51-11.15-8.4-14.66-14.68-3.51-6.28-5.28-12.88-5.28-19.78s1.79-13.61,5.37-19.98c3.58-6.36,8.48-11.24,14.75-14.66,6.27-3.41,12.8-5.11,19.63-5.11ZM1880.46,7.79c-5.47,0-10.72,1.37-15.74,4.1-5,2.73-8.96,6.66-11.83,11.77-2.9,5.11-4.34,10.48-4.34,16.1s1.41,10.86,4.22,15.92c2.83,5.04,6.76,8.99,11.81,11.83,5.04,2.84,10.35,4.24,15.88,4.24s10.86-1.4,15.88-4.24c5.04-2.84,8.98-6.79,11.81-11.83,2.83-5.06,4.27-10.36,4.27-15.92s-1.46-10.98-4.34-16.1c-2.87-5.11-6.86-9.04-11.88-11.77-5.04-2.73-10.3-4.1-15.74-4.1ZM1862.45,61.01V18.84h8.55c8.01,0,12.54.04,13.48.09,2.85.25,5.04.81,6.62,1.7,1.58.88,2.87,2.24,3.94,4.04,1.06,1.81,1.6,3.83,1.6,6.04,0,3.03-1.01,5.64-2.99,7.81-2,2.17-4.78,3.5-8.39,4.02,1.3.49,2.29,1.01,2.97,1.58.69.57,1.63,1.65,2.85,3.25.31.41,1.34,2.12,3.11,5.14l4.97,8.5h-10.58l-3.51-6.86c-2.4-4.58-4.36-7.48-5.91-8.67-1.58-1.19-3.54-1.79-5.94-1.79h-2.22v17.32h-8.55ZM1871.01,37.06h3.46c4.97,0,8.04-.19,9.22-.58,1.2-.39,2.14-1.05,2.83-2.02.71-.94,1.04-2.01,1.04-3.23s-.33-2.22-1.01-3.13c-.66-.92-1.63-1.59-2.85-1.97-1.27-.4-4.34-.6-9.22-.6h-3.46v11.52Z" style="fill: #009cde; stroke-width: 0px;"></path></g></svg> 